<svg width="33" height="33" viewBox="0 0 33 33" fill="none" xmlns="http://www.w3.org/2000/svg">
<path d="M17.4395 2.75C18.2996 2.75 18.7299 2.75029 19.0156 3.00879C19.3013 3.26732 19.3442 3.69504 19.4297 4.55078L19.4512 4.76855C19.6143 6.40155 19.6964 7.21817 20.249 7.44727C20.8018 7.67631 21.4374 7.15643 22.708 6.11719L22.8779 5.97852C23.5434 5.43427 23.8761 5.1625 24.2607 5.18164C24.6455 5.20086 24.9497 5.50436 25.5576 6.1123L26.8867 7.44141C27.4951 8.04976 27.7992 8.35437 27.8184 8.73926C27.8374 9.12405 27.5653 9.4574 27.0205 10.123L26.8828 10.291C25.8433 11.5612 25.3231 12.1962 25.5518 12.749C25.7806 13.3018 26.5974 13.3842 28.2305 13.5479L28.4492 13.5693C29.3045 13.6551 29.7327 13.6981 29.9912 13.9834C30.2497 14.2691 30.25 14.6996 30.25 15.5596V17.4395C30.25 18.2997 30.2497 18.7299 29.9912 19.0156C29.7327 19.3013 29.305 19.3442 28.4492 19.4297L28.2324 19.4512C26.599 19.6144 25.782 19.6965 25.5527 20.249C25.3237 20.8018 25.8431 21.4374 26.8828 22.708L27.0205 22.877C27.5651 23.5425 27.8374 23.875 27.8184 24.2598C27.7992 24.6446 27.4958 24.9493 26.8877 25.5576L25.5576 26.8867C24.9495 27.495 24.6456 27.7991 24.2607 27.8184C23.876 27.8375 23.5427 27.5652 22.877 27.0205L22.708 26.8828C21.4373 25.8432 20.8018 25.3227 20.249 25.5518C19.6963 25.7808 19.6144 26.5979 19.4512 28.2314L19.4297 28.4492C19.3442 29.305 19.3013 29.7327 19.0156 29.9912C18.7299 30.2497 18.2997 30.25 17.4395 30.25H15.5596C14.6996 30.25 14.2691 30.2497 13.9834 29.9912C13.6981 29.7327 13.6551 29.3045 13.5693 28.4492L13.5479 28.2305C13.3842 26.5974 13.3018 25.7806 12.749 25.5518C12.1962 25.3231 11.5612 25.8433 10.291 26.8828L10.123 27.0205C9.4574 27.5653 9.12405 27.8374 8.73926 27.8184C8.35437 27.7992 8.04975 27.4951 7.44141 26.8867L6.1123 25.5576C5.50436 24.9497 5.20086 24.6455 5.18164 24.2607C5.1625 23.8761 5.43427 23.5434 5.97852 22.8779L6.11719 22.708C7.15643 21.4374 7.67631 20.8018 7.44727 20.249C7.21817 19.6964 6.40155 19.6143 4.76855 19.4512L4.55078 19.4297C3.69504 19.3442 3.26732 19.3013 3.00879 19.0156C2.75029 18.7299 2.75 18.2996 2.75 17.4395V15.5596C2.75 14.6997 2.75039 14.27 3.00879 13.9844C3.26731 13.6987 3.69492 13.655 4.55078 13.5693L4.76855 13.5479C6.40173 13.3844 7.21831 13.3028 7.44727 12.75C7.6762 12.1973 7.15638 11.5623 6.11719 10.292L5.97852 10.1221C5.43421 9.45671 5.16257 9.12389 5.18164 8.73926C5.20082 8.35454 5.50444 8.05041 6.1123 7.44238L7.44141 6.1123C8.04969 5.50387 8.35437 5.19987 8.73926 5.18066C9.12407 5.16155 9.45731 5.43375 10.123 5.97852L10.291 6.11621C11.5615 7.15579 12.1972 7.67612 12.75 7.44727C13.3028 7.21833 13.3844 6.40106 13.5479 4.76758L13.5693 4.55078C13.655 3.69492 13.6987 3.26731 13.9844 3.00879C14.27 2.75039 14.6997 2.75 15.5596 2.75H17.4395ZM16.5 11C13.4624 11 11 13.4624 11 16.5C11 19.5376 13.4624 22 16.5 22C19.5376 22 22 19.5376 22 16.5C22 13.4624 19.5376 11 16.5 11Z" fill="#FFF8F8"/>
<path d="M19.0156 3.00879L19.4182 2.56393L19.4182 2.56387L19.0156 3.00879ZM19.4297 4.55078L20.0268 4.49187L20.0267 4.49113L19.4297 4.55078ZM19.4512 4.76855L18.8541 4.82746L18.8541 4.82821L19.4512 4.76855ZM20.249 7.44727L20.0192 8.00152L20.0193 8.00156L20.249 7.44727ZM22.708 6.11719L22.3286 5.65234L22.3281 5.65275L22.708 6.11719ZM22.8779 5.97852L23.2573 6.44337L23.2578 6.44296L22.8779 5.97852ZM24.2607 5.18164L24.2907 4.58239L24.2906 4.58238L24.2607 5.18164ZM25.5576 6.1123L25.9819 5.68804L25.5576 6.1123ZM27.8184 8.73926L28.4176 8.70959L28.4176 8.70942L27.8184 8.73926ZM27.0205 10.123L27.4845 10.5034L27.4848 10.5031L27.0205 10.123ZM26.8828 10.291L26.4188 9.91063L26.4185 9.911L26.8828 10.291ZM25.5518 12.749L24.9973 12.9784L24.9974 12.9785L25.5518 12.749ZM28.2305 13.5479L28.1706 14.1449L28.1718 14.145L28.2305 13.5479ZM28.4492 13.5693L28.5091 12.9723L28.5079 12.9722L28.4492 13.5693ZM29.9912 13.9834L30.4361 13.5808L30.4358 13.5805L29.9912 13.9834ZM29.9912 19.0156L30.4361 19.4183L30.4361 19.4182L29.9912 19.0156ZM28.4492 19.4297L28.5084 20.0268L28.5089 20.0267L28.4492 19.4297ZM28.2324 19.4512L28.1733 18.8541L28.1728 18.8541L28.2324 19.4512ZM25.5527 20.249L24.9985 20.0191L24.9984 20.0194L25.5527 20.249ZM26.8828 22.708L27.3479 22.3289L27.3472 22.328L26.8828 22.708ZM27.0205 22.877L26.5554 23.256L26.5562 23.2569L27.0205 22.877ZM27.8184 24.2598L28.4176 24.2896L28.4176 24.2894L27.8184 24.2598ZM26.8877 25.5576L27.3118 25.982L27.312 25.9818L26.8877 25.5576ZM25.5576 26.8867L25.1335 26.4623L25.1333 26.4625L25.5576 26.8867ZM24.2607 27.8184L24.2906 28.4176L24.2907 28.4176L24.2607 27.8184ZM22.877 27.0205L23.2569 26.5561L23.256 26.5554L22.877 27.0205ZM22.708 26.8828L22.3281 27.3472L22.3289 27.3479L22.708 26.8828ZM20.249 25.5518L20.0194 24.9974L20.0193 24.9975L20.249 25.5518ZM19.4512 28.2314L18.8541 28.1718L18.8541 28.1725L19.4512 28.2314ZM19.4297 28.4492L20.0267 28.5089L20.0268 28.5081L19.4297 28.4492ZM19.0156 29.9912L19.4182 30.4361L19.4183 30.4361L19.0156 29.9912ZM13.9834 29.9912L13.5805 30.4358L13.5808 30.4361L13.9834 29.9912ZM13.5693 28.4492L12.9722 28.5079L12.9723 28.5091L13.5693 28.4492ZM13.5479 28.2305L14.145 28.1718L14.1449 28.1706L13.5479 28.2305ZM12.749 25.5518L12.9785 24.9974L12.9784 24.9973L12.749 25.5518ZM10.291 26.8828L9.911 26.4185L9.91063 26.4188L10.291 26.8828ZM10.123 27.0205L10.5031 27.4848L10.5034 27.4845L10.123 27.0205ZM8.73926 27.8184L8.70942 28.4176L8.70959 28.4176L8.73926 27.8184ZM7.44141 26.8867L7.01714 27.311L7.44141 26.8867ZM6.1123 25.5576L5.68804 25.9819L6.1123 25.5576ZM5.18164 24.2607L4.58238 24.2906L4.58239 24.2907L5.18164 24.2607ZM5.97852 22.8779L6.44296 23.2578L6.44337 23.2573L5.97852 22.8779ZM6.11719 22.708L5.65274 22.3281L5.65234 22.3286L6.11719 22.708ZM7.44727 20.249L8.00156 20.0193L8.00152 20.0192L7.44727 20.249ZM4.76855 19.4512L4.82821 18.8541L4.82746 18.8541L4.76855 19.4512ZM4.55078 19.4297L4.49113 20.0267L4.49187 20.0268L4.55078 19.4297ZM3.00879 19.0156L2.56387 19.4182L2.56393 19.4182L3.00879 19.0156ZM2.75 15.5596H2.15H2.75ZM3.00879 13.9844L2.5639 13.5818L2.56383 13.5819L3.00879 13.9844ZM4.55078 13.5693L4.49187 12.9722L4.49103 12.9723L4.55078 13.5693ZM4.76855 13.5479L4.82746 14.145L4.82831 14.1449L4.76855 13.5479ZM7.44727 12.75L8.0016 12.9796L8.0016 12.9796L7.44727 12.75ZM6.11719 10.292L5.65234 10.6714L5.65279 10.6719L6.11719 10.292ZM5.97852 10.1221L6.44337 9.74271L6.44292 9.74216L5.97852 10.1221ZM5.18164 8.73926L4.58238 8.70939L4.58238 8.70954L5.18164 8.73926ZM6.1123 7.44238L6.53662 7.86659L6.53672 7.86649L6.1123 7.44238ZM7.44141 6.1123L7.01709 5.68809L7.01699 5.6882L7.44141 6.1123ZM8.73926 5.18066L8.70949 4.5814L8.70935 4.58141L8.73926 5.18066ZM10.123 5.97852L10.5034 5.5145L10.503 5.51416L10.123 5.97852ZM10.291 6.11621L9.91063 6.58022L9.91105 6.58056L10.291 6.11621ZM12.75 7.44727L12.9795 8.00164L12.9796 8.00161L12.75 7.44727ZM13.5479 4.76758L14.1449 4.82733L14.1449 4.82675L13.5479 4.76758ZM13.5693 4.55078L12.9723 4.49103L12.9723 4.49161L13.5693 4.55078ZM13.9844 3.00879L13.5819 2.56383L13.5818 2.5639L13.9844 3.00879ZM15.5596 2.75V2.15V2.75ZM17.4395 2.75V3.35C17.8855 3.35 18.1626 3.35124 18.3661 3.37752C18.5527 3.40161 18.5959 3.43818 18.6131 3.4537L19.0156 3.00879L19.4182 2.56387C19.1496 2.3209 18.8348 2.22807 18.5198 2.1874C18.2217 2.14891 17.8536 2.15 17.4395 2.15V2.75ZM19.0156 3.00879L18.613 3.45364C18.6302 3.46917 18.6708 3.50838 18.7132 3.69143C18.7596 3.8912 18.7883 4.16666 18.8327 4.61043L19.4297 4.55078L20.0267 4.49113C19.9856 4.07917 19.9501 3.7129 19.8822 3.42024C19.8104 3.11086 19.6867 2.80694 19.4182 2.56393L19.0156 3.00879ZM19.4297 4.55078L18.8326 4.60969L18.8541 4.82746L19.4512 4.76855L20.0483 4.70965L20.0268 4.49187L19.4297 4.55078ZM19.4512 4.76855L18.8541 4.82821C18.9337 5.62452 18.9988 6.29052 19.1222 6.78085C19.2459 7.27201 19.473 7.77505 20.0192 8.00152L20.249 7.44727L20.4788 6.89301C20.4725 6.89038 20.3822 6.87056 20.2859 6.48789C20.1894 6.10439 20.1318 5.54558 20.0482 4.7089L19.4512 4.76855ZM20.249 7.44727L20.0193 8.00156C20.5659 8.22805 21.0824 8.03271 21.5172 7.77283C21.9512 7.51336 22.4683 7.08835 23.0879 6.58163L22.708 6.11719L22.3281 5.65275C21.677 6.18527 21.241 6.53982 20.9014 6.74284C20.5625 6.94545 20.4849 6.89552 20.4787 6.89297L20.249 7.44727ZM22.708 6.11719L23.0874 6.58204L23.2573 6.44337L22.8779 5.97852L22.4986 5.51367L22.3286 5.65234L22.708 6.11719ZM22.8779 5.97852L23.2578 6.44296C23.6028 6.16074 23.8179 5.98645 23.9919 5.87808C24.1513 5.77879 24.2077 5.77975 24.2309 5.7809L24.2607 5.18164L24.2906 4.58238C23.9291 4.5644 23.6269 4.69167 23.3574 4.85953C23.1025 5.01833 22.8184 5.25204 22.4981 5.51407L22.8779 5.97852ZM24.2607 5.18164L24.2308 5.78089C24.2541 5.78206 24.3104 5.78676 24.4592 5.90141C24.6215 6.02652 24.8182 6.22138 25.1334 6.53657L25.5576 6.1123L25.9819 5.68804C25.6891 5.39528 25.4297 5.13442 25.1918 4.951C24.9402 4.7571 24.6521 4.60045 24.2907 4.58239L24.2607 5.18164ZM25.5576 6.1123L25.1334 6.53657L26.4625 7.86567L26.8867 7.44141L27.311 7.01714L25.9819 5.68804L25.5576 6.1123ZM26.8867 7.44141L26.4625 7.86567C26.7779 8.18109 26.973 8.378 27.0984 8.54053C27.2133 8.68957 27.218 8.74598 27.2191 8.7691L27.8184 8.73926L28.4176 8.70942C28.3996 8.34765 28.2426 8.05931 28.0486 7.80773C27.865 7.56965 27.6039 7.31007 27.311 7.01714L26.8867 7.44141ZM27.8184 8.73926L27.2191 8.76893C27.2202 8.79217 27.2211 8.84886 27.1216 9.00853C27.0131 9.18265 26.8386 9.39796 26.5562 9.74303L27.0205 10.123L27.4848 10.5031C27.7472 10.1825 27.9811 9.8983 28.1401 9.64314C28.3081 9.37352 28.4355 9.07113 28.4176 8.70959L27.8184 8.73926ZM27.0205 10.123L26.5565 9.74266L26.4188 9.91063L26.8828 10.291L27.3468 10.6714L27.4845 10.5034L27.0205 10.123ZM26.8828 10.291L26.4185 9.911C25.9117 10.5303 25.4865 11.0471 25.2269 11.4809C24.9668 11.9154 24.7712 12.4317 24.9973 12.9784L25.5518 12.749L26.1062 12.5197C26.1037 12.5136 26.0538 12.4359 26.2565 12.0972C26.4597 11.7577 26.8144 11.3219 27.3471 10.671L26.8828 10.291ZM25.5518 12.749L24.9974 12.9785C25.2236 13.525 25.7267 13.7523 26.2179 13.8761C26.7082 13.9998 27.3743 14.065 28.1706 14.1449L28.2305 13.5479L28.2903 12.9508C27.4536 12.867 26.8947 12.8092 26.5112 12.7125C26.1285 12.6161 26.1087 12.5258 26.1061 12.5195L25.5518 12.749ZM28.2305 13.5479L28.1718 14.145L28.3906 14.1665L28.4492 13.5693L28.5079 12.9722L28.2891 12.9507L28.2305 13.5479ZM28.4492 13.5693L28.3894 14.1663C28.8329 14.2108 29.1085 14.2396 29.3084 14.286C29.4918 14.3286 29.5311 14.3692 29.5466 14.3863L29.9912 13.9834L30.4358 13.5805C30.1928 13.3123 29.8888 13.1888 29.5796 13.1171C29.287 13.0492 28.9208 13.0136 28.5091 12.9723L28.4492 13.5693ZM29.9912 13.9834L29.5463 14.3859C29.5618 14.4031 29.5984 14.4463 29.6225 14.6329C29.6488 14.8365 29.65 15.1137 29.65 15.5596H30.25H30.85C30.85 15.1455 30.8511 14.7774 30.8126 14.4793C30.7719 14.1643 30.6791 13.8494 30.4361 13.5808L29.9912 13.9834ZM30.25 15.5596H29.65V17.4395H30.25H30.85V15.5596H30.25ZM30.25 17.4395H29.65C29.65 17.8855 29.6488 18.1626 29.6225 18.3661C29.5984 18.5527 29.5618 18.5959 29.5463 18.6131L29.9912 19.0156L30.4361 19.4182C30.6791 19.1496 30.7719 18.8348 30.8126 18.5198C30.8511 18.2217 30.85 17.8536 30.85 17.4395H30.25ZM29.9912 19.0156L29.5464 18.613C29.5308 18.6302 29.4916 18.6708 29.3086 18.7132C29.1088 18.7596 28.8333 18.7883 28.3896 18.8327L28.4492 19.4297L28.5089 20.0267C28.9208 19.9856 29.2871 19.9501 29.5798 19.8822C29.8891 19.8104 30.1931 19.6867 30.4361 19.4183L29.9912 19.0156ZM28.4492 19.4297L28.39 18.8326L28.1733 18.8541L28.2324 19.4512L28.2916 20.0482L28.5084 20.0268L28.4492 19.4297ZM28.2324 19.4512L28.1728 18.8541C27.3762 18.9337 26.71 18.9988 26.2196 19.1222C25.7283 19.2459 25.2251 19.4729 24.9985 20.0191L25.5527 20.249L26.1069 20.4789C26.1096 20.4726 26.1295 20.3823 26.5124 20.2859C26.8961 20.1894 27.4552 20.1318 28.2921 20.0482L28.2324 19.4512ZM25.5527 20.249L24.9984 20.0194C24.7721 20.5659 24.9671 21.0823 25.227 21.5172C25.4864 21.9513 25.9115 22.4684 26.4185 23.088L26.8828 22.708L27.3472 22.328C26.8145 21.677 26.46 21.2411 26.257 20.9016C26.0546 20.5628 26.1044 20.485 26.1071 20.4786L25.5527 20.249ZM26.8828 22.708L26.4177 23.0871L26.5554 23.256L27.0205 22.877L27.4856 22.4979L27.3479 22.3289L26.8828 22.708ZM27.0205 22.877L26.5562 23.2569C26.8386 23.6021 27.0132 23.8172 27.1217 23.9913C27.2212 24.1507 27.2202 24.2071 27.2191 24.2301L27.8184 24.2598L28.4176 24.2894C28.4355 23.9277 28.3079 23.6254 28.1399 23.3561C27.9809 23.1013 27.747 22.8173 27.4849 22.497L27.0205 22.877ZM27.8184 24.2598L27.2191 24.2299C27.2179 24.2534 27.2131 24.3099 27.0985 24.4588C26.9734 24.6212 26.7786 24.8182 26.4634 25.1334L26.8877 25.5576L27.312 25.9818C27.605 25.6888 27.8658 25.4292 28.0493 25.191C28.2432 24.9392 28.3996 24.651 28.4176 24.2896L27.8184 24.2598ZM26.8877 25.5576L26.4636 25.1332L25.1335 26.4623L25.5576 26.8867L25.9817 27.3111L27.3118 25.982L26.8877 25.5576ZM25.5576 26.8867L25.1333 26.4625C24.8179 26.778 24.6212 26.9731 24.4588 27.0985C24.31 27.2134 24.2538 27.218 24.2308 27.2191L24.2607 27.8184L24.2907 28.4176C24.6525 28.3995 24.9407 28.2424 25.1921 28.0484C25.4299 27.8648 25.6892 27.6037 25.9819 27.3109L25.5576 26.8867ZM24.2607 27.8184L24.2309 27.2191C24.2079 27.2202 24.1513 27.2212 23.9916 27.1217C23.8174 27.0131 23.6021 26.8385 23.2569 26.5561L22.877 27.0205L22.497 27.4849C22.8176 27.7471 23.1018 27.9811 23.3568 28.14C23.6264 28.308 23.9288 28.4356 24.2906 28.4176L24.2607 27.8184ZM22.877 27.0205L23.256 26.5554L23.0871 26.4177L22.708 26.8828L22.3289 27.3479L22.4979 27.4856L22.877 27.0205ZM22.708 26.8828L23.0879 26.4184C22.4684 25.9116 21.9513 25.4863 21.5174 25.2267C21.0828 24.9667 20.5662 24.7709 20.0194 24.9974L20.249 25.5518L20.4787 26.1061C20.4847 26.1036 20.5622 26.0536 20.9012 26.2564C21.2409 26.4597 21.6769 26.8145 22.3281 27.3472L22.708 26.8828ZM20.249 25.5518L20.0193 24.9975C19.4728 25.2239 19.2457 25.7273 19.1221 26.2185C18.9987 26.709 18.9337 27.3753 18.8541 28.1718L19.4512 28.2314L20.0482 28.2911C20.1318 27.4541 20.1893 26.8951 20.2859 26.5113C20.3822 26.1284 20.4725 26.1086 20.4787 26.106L20.249 25.5518ZM19.4512 28.2314L18.8541 28.1725L18.8326 28.3903L19.4297 28.4492L20.0268 28.5081L20.0483 28.2904L19.4512 28.2314ZM19.4297 28.4492L18.8327 28.3896C18.7883 28.8333 18.7596 29.1088 18.7132 29.3086C18.6708 29.4916 18.6302 29.5308 18.613 29.5464L19.0156 29.9912L19.4183 30.4361C19.6867 30.1931 19.8104 29.8891 19.8822 29.5798C19.9501 29.2871 19.9856 28.9208 20.0267 28.5089L19.4297 28.4492ZM19.0156 29.9912L18.6131 29.5463C18.5959 29.5618 18.5527 29.5984 18.3661 29.6225C18.1626 29.6488 17.8855 29.65 17.4395 29.65V30.25V30.85C17.8536 30.85 18.2217 30.8511 18.5198 30.8126C18.8348 30.7719 19.1496 30.6791 19.4182 30.4361L19.0156 29.9912ZM17.4395 30.25V29.65H15.5596V30.25V30.85H17.4395V30.25ZM15.5596 30.25V29.65C15.1137 29.65 14.8365 29.6488 14.6329 29.6225C14.4463 29.5984 14.4031 29.5618 14.3859 29.5463L13.9834 29.9912L13.5808 30.4361C13.8494 30.6791 14.1643 30.7719 14.4793 30.8126C14.7774 30.8511 15.1455 30.85 15.5596 30.85V30.25ZM13.9834 29.9912L14.3863 29.5466C14.3692 29.5311 14.3286 29.4918 14.286 29.3084C14.2396 29.1085 14.2108 28.8329 14.1663 28.3894L13.5693 28.4492L12.9723 28.5091C13.0136 28.9208 13.0492 29.287 13.1171 29.5796C13.1888 29.8888 13.3123 30.1928 13.5805 30.4358L13.9834 29.9912ZM13.5693 28.4492L14.1665 28.3906L14.145 28.1718L13.5479 28.2305L12.9507 28.2891L12.9722 28.5079L13.5693 28.4492ZM13.5479 28.2305L14.1449 28.1706C14.065 27.3743 13.9998 26.7082 13.8761 26.2179C13.7523 25.7267 13.525 25.2236 12.9785 24.9974L12.749 25.5518L12.5195 26.1061C12.5258 26.1087 12.6161 26.1285 12.7125 26.5112C12.8092 26.8947 12.867 27.4536 12.9508 28.2903L13.5479 28.2305ZM12.749 25.5518L12.9784 24.9973C12.4317 24.7712 11.9154 24.9668 11.4809 25.2269C11.0471 25.4865 10.5303 25.9117 9.911 26.4185L10.291 26.8828L10.671 27.3471C11.3219 26.8144 11.7577 26.4597 12.0972 26.2565C12.4359 26.0538 12.5136 26.1037 12.5197 26.1062L12.749 25.5518ZM10.291 26.8828L9.91063 26.4188L9.74266 26.5565L10.123 27.0205L10.5034 27.4845L10.6714 27.3468L10.291 26.8828ZM10.123 27.0205L9.74303 26.5562C9.39796 26.8386 9.18265 27.0131 9.00853 27.1216C8.84886 27.2211 8.79217 27.2202 8.76893 27.2191L8.73926 27.8184L8.70959 28.4176C9.07113 28.4355 9.37352 28.3081 9.64314 28.1401C9.8983 27.9811 10.1825 27.7472 10.5031 27.4848L10.123 27.0205ZM8.73926 27.8184L8.7691 27.2191C8.74598 27.218 8.68957 27.2133 8.54053 27.0984C8.378 26.973 8.18109 26.7779 7.86567 26.4625L7.44141 26.8867L7.01714 27.311C7.31007 27.6039 7.56965 27.865 7.80773 28.0486C8.05931 28.2426 8.34765 28.3996 8.70942 28.4176L8.73926 27.8184ZM7.44141 26.8867L7.86567 26.4625L6.53657 25.1334L6.1123 25.5576L5.68804 25.9819L7.01714 27.311L7.44141 26.8867ZM6.1123 25.5576L6.53657 25.1334C6.22138 24.8182 6.02652 24.6215 5.90141 24.4592C5.78676 24.3104 5.78206 24.2541 5.78089 24.2308L5.18164 24.2607L4.58239 24.2907C4.60045 24.6521 4.7571 24.9402 4.951 25.1918C5.13442 25.4297 5.39528 25.6891 5.68804 25.9819L6.1123 25.5576ZM5.18164 24.2607L5.7809 24.2309C5.77975 24.2077 5.77879 24.1513 5.87808 23.9919C5.98645 23.8179 6.16074 23.6028 6.44296 23.2578L5.97852 22.8779L5.51407 22.4981C5.25204 22.8184 5.01833 23.1025 4.85953 23.3574C4.69167 23.6269 4.5644 23.9291 4.58238 24.2906L5.18164 24.2607ZM5.97852 22.8779L6.44337 23.2573L6.58204 23.0874L6.11719 22.708L5.65234 22.3286L5.51367 22.4986L5.97852 22.8779ZM6.11719 22.708L6.58163 23.0879C7.08835 22.4683 7.51336 21.9512 7.77283 21.5172C8.03271 21.0824 8.22805 20.5659 8.00156 20.0193L7.44727 20.249L6.89297 20.4787C6.89552 20.4849 6.94545 20.5625 6.74284 20.9014C6.53982 21.241 6.18527 21.677 5.65275 22.3281L6.11719 22.708ZM7.44727 20.249L8.00152 20.0192C7.77505 19.473 7.27201 19.2459 6.78085 19.1222C6.29052 18.9988 5.62452 18.9337 4.82821 18.8541L4.76855 19.4512L4.7089 20.0482C5.54558 20.1318 6.10439 20.1894 6.48789 20.2859C6.87056 20.3822 6.89038 20.4725 6.89301 20.4788L7.44727 20.249ZM4.76855 19.4512L4.82746 18.8541L4.60969 18.8326L4.55078 19.4297L4.49187 20.0268L4.70965 20.0483L4.76855 19.4512ZM4.55078 19.4297L4.61043 18.8327C4.16666 18.7883 3.8912 18.7596 3.69143 18.7132C3.50838 18.6708 3.46917 18.6302 3.45364 18.613L3.00879 19.0156L2.56393 19.4182C2.80694 19.6867 3.11086 19.8104 3.42024 19.8822C3.7129 19.9501 4.07917 19.9856 4.49113 20.0267L4.55078 19.4297ZM3.00879 19.0156L3.4537 18.6131C3.43818 18.5959 3.40161 18.5527 3.37752 18.3661C3.35124 18.1626 3.35 17.8855 3.35 17.4395H2.75H2.15C2.15 17.8536 2.14891 18.2217 2.1874 18.5198C2.22807 18.8348 2.3209 19.1496 2.56387 19.4182L3.00879 19.0156ZM2.75 17.4395H3.35V15.5596H2.75H2.15V17.4395H2.75ZM2.75 15.5596H3.35C3.35 15.1137 3.35126 14.8369 3.37754 14.6336C3.40162 14.4473 3.43814 14.4041 3.45375 14.3869L3.00879 13.9844L2.56383 13.5819C2.32104 13.8503 2.22816 14.1648 2.18745 14.4797C2.14893 14.7777 2.15 15.1455 2.15 15.5596H2.75ZM3.00879 13.9844L3.45368 14.387C3.46945 14.3695 3.50896 14.3288 3.69188 14.2862C3.89148 14.2397 4.16696 14.2107 4.61053 14.1664L4.55078 13.5693L4.49103 12.9723C4.07874 13.0136 3.71249 13.0493 3.41968 13.1175C3.11021 13.1896 2.80665 13.3135 2.5639 13.5818L3.00879 13.9844ZM4.55078 13.5693L4.60969 14.1664L4.82746 14.145L4.76855 13.5479L4.70965 12.9508L4.49187 12.9722L4.55078 13.5693ZM4.76855 13.5479L4.82831 14.1449C5.62459 14.0652 6.29065 14.0001 6.7809 13.8768C7.27202 13.7532 7.77522 13.5261 8.0016 12.9796L7.44727 12.75L6.89294 12.5204C6.89036 12.5266 6.87079 12.6168 6.48808 12.713C6.10451 12.8096 5.54569 12.8671 4.7088 12.9508L4.76855 13.5479ZM7.44727 12.75L8.0016 12.9796C8.22798 12.433 8.03262 11.9167 7.7727 11.4821C7.51325 11.0483 7.08824 10.5314 6.58159 9.91208L6.11719 10.292L5.65279 10.6719C6.18532 11.3229 6.53983 11.7586 6.74285 12.0981C6.94541 12.4367 6.89548 12.5142 6.89293 12.5204L7.44727 12.75ZM6.11719 10.292L6.58204 9.91263L6.44337 9.74271L5.97852 10.1221L5.51367 10.5014L5.65234 10.6714L6.11719 10.292ZM5.97852 10.1221L6.44292 9.74216C6.16072 9.3972 5.98644 9.18213 5.87811 9.00819C5.77884 8.84881 5.77975 8.79226 5.7809 8.76898L5.18164 8.73926L4.58238 8.70954C4.56446 9.07089 4.69165 9.37307 4.85951 9.64259C5.01832 9.89757 5.25201 10.1816 5.51411 10.502L5.97852 10.1221ZM5.18164 8.73926L5.7809 8.76913C5.78205 8.74595 5.78671 8.68966 5.9014 8.5409C6.02655 8.37856 6.22142 8.18187 6.53662 7.86659L6.1123 7.44238L5.68799 7.01817C5.39532 7.31092 5.13445 7.57031 4.95103 7.80822C4.75715 8.05971 4.60041 8.34785 4.58238 8.70939L5.18164 8.73926ZM6.1123 7.44238L6.53672 7.86649L7.86583 6.53641L7.44141 6.1123L7.01699 5.6882L5.68788 7.01827L6.1123 7.44238ZM7.44141 6.1123L7.86572 6.53652C8.18106 6.2211 8.37797 6.02598 8.54047 5.90068C8.68948 5.78579 8.74595 5.78108 8.76917 5.77992L8.73926 5.18066L8.70935 4.58141C8.34768 4.59946 8.05937 4.75635 7.80773 4.95037C7.5696 5.13398 7.31003 5.39508 7.01709 5.68809L7.44141 6.1123ZM8.73926 5.18066L8.76903 5.77993C8.79219 5.77877 8.84879 5.77784 9.00846 5.87735C9.18261 5.98588 9.3979 6.16042 9.74308 6.44287L10.123 5.97852L10.503 5.51416C10.1825 5.25185 9.89825 5.01791 9.64315 4.85893C9.37357 4.69092 9.07114 4.56344 8.70949 4.5814L8.73926 5.18066ZM10.123 5.97852L9.74266 6.44253L9.91063 6.58022L10.291 6.11621L10.6714 5.6522L10.5034 5.5145L10.123 5.97852ZM10.291 6.11621L9.91105 6.58056C10.5305 7.08744 11.0476 7.51265 11.4816 7.7723C11.9162 8.03231 12.4328 8.22797 12.9795 8.00164L12.75 7.44727L12.5205 6.8929C12.5144 6.89542 12.4367 6.94534 12.0977 6.74251C11.758 6.5393 11.322 6.18456 10.671 5.65186L10.291 6.11621ZM12.75 7.44727L12.9796 8.00161C13.5263 7.77519 13.7533 7.27162 13.8768 6.78045C14.0001 6.29003 14.0652 5.62375 14.1449 4.82733L13.5479 4.76758L12.9508 4.70783C12.8671 5.54489 12.8096 6.10398 12.713 6.4878C12.6167 6.87087 12.5265 6.8904 12.5204 6.89292L12.75 7.44727ZM13.5479 4.76758L14.1449 4.82675L14.1664 4.60995L13.5693 4.55078L12.9723 4.49161L12.9508 4.70841L13.5479 4.76758ZM13.5693 4.55078L14.1664 4.61053C14.2107 4.16696 14.2397 3.89148 14.2862 3.69188C14.3288 3.50896 14.3695 3.46945 14.387 3.45368L13.9844 3.00879L13.5818 2.5639C13.3135 2.80665 13.1896 3.11021 13.1175 3.41968C13.0493 3.71249 13.0136 4.07874 12.9723 4.49103L13.5693 4.55078ZM13.9844 3.00879L14.3869 3.45375C14.4041 3.43814 14.4473 3.40162 14.6336 3.37754C14.8369 3.35126 15.1137 3.35 15.5596 3.35V2.75V2.15C15.1455 2.15 14.7777 2.14893 14.4797 2.18745C14.1648 2.22816 13.8503 2.32104 13.5819 2.56383L13.9844 3.00879ZM15.5596 2.75V3.35H17.4395V2.75V2.15H15.5596V2.75ZM16.5 11V10.4C13.1311 10.4 10.4 13.1311 10.4 16.5H11H11.6C11.6 13.7938 13.7938 11.6 16.5 11.6V11ZM11 16.5H10.4C10.4 19.8689 13.1311 22.6 16.5 22.6V22V21.4C13.7938 21.4 11.6 19.2062 11.6 16.5H11ZM16.5 22V22.6C19.8689 22.6 22.6 19.8689 22.6 16.5H22H21.4C21.4 19.2062 19.2062 21.4 16.5 21.4V22ZM22 16.5H22.6C22.6 13.1311 19.8689 10.4 16.5 10.4V11V11.6C19.2062 11.6 21.4 13.7938 21.4 16.5H22Z" fill="#FFF8F8"/>
</svg>
